<?xml version="1.0" encoding="utf-8"?>
<!-- Generator: Adobe Illustrator 27.8.1, SVG Export Plug-In . SVG Version: 6.00 Build 0)  -->
<svg version="1.1" id="Слой_1" xmlns="http://www.w3.org/2000/svg" xmlns:xlink="http://www.w3.org/1999/xlink" x="0px" y="0px"
	 viewBox="0 0 164.38 66.49" style="enable-background:new 0 0 164.38 66.49;" xml:space="preserve">
<style type="text/css">
	.st0{fill:#FFFFFF;}
	.st1{clip-path:url(#SVGID_00000177480372279078771790000000094722791818893745_);fill:#E3121C;}
</style>
<rect y="0" class="st0" width="164.38" height="66.49"/>
<g>
	<defs>
		<rect id="SVGID_1_" y="0" width="164.38" height="66.49"/>
	</defs>
	<clipPath id="SVGID_00000160907513524354233490000015351480016327767464_">
		<use xlink:href="#SVGID_1_"  style="overflow:visible;"/>
	</clipPath>
	<path style="clip-path:url(#SVGID_00000160907513524354233490000015351480016327767464_);fill:#E3121C;" d="M19.8,37.75
		c0-0.46,0.02-0.96,0.05-1.48c0.04-0.52,0.15-1.04,0.33-1.55c0.18-0.51,0.48-0.99,0.88-1.43c0.4-0.44,0.97-0.81,1.7-1.1
		c-0.54-0.22-0.98-0.49-1.33-0.81c-0.35-0.32-0.64-0.66-0.86-1.04c-0.22-0.38-0.37-0.76-0.46-1.13c-0.09-0.38-0.13-0.72-0.13-1.04
		v-1.79c0-0.46,0.04-1.07,0.11-1.81c0.07-0.74,0.33-1.47,0.77-2.18c0.44-0.71,1.14-1.32,2.1-1.83c0.96-0.51,2.32-0.77,4.08-0.77
		s3.11,0.26,4.08,0.77c0.96,0.51,1.67,1.12,2.1,1.83c0.44,0.71,0.69,1.43,0.77,2.18c0.07,0.74,0.11,1.35,0.11,1.81v1.79
		c0,0.32-0.05,0.67-0.15,1.04c-0.1,0.38-0.26,0.75-0.47,1.12c-0.22,0.37-0.52,0.71-0.9,1.04c-0.38,0.33-0.84,0.6-1.37,0.82
		c0.73,0.27,1.3,0.58,1.7,0.93c0.4,0.35,0.71,0.77,0.91,1.24c0.21,0.47,0.33,0.99,0.38,1.55c0.05,0.56,0.07,1.17,0.07,1.83v2.19
		c0,2.02-0.62,3.63-1.85,4.81c-1.23,1.18-3.03,1.77-5.4,1.77c-2.37,0-4.16-0.59-5.4-1.77c-1.23-1.18-1.85-2.79-1.85-4.81V37.75z
		 M25.65,28.35c0,0.71,0.13,1.17,0.4,1.37s0.6,0.31,0.99,0.31c0.37,0,0.69-0.1,0.97-0.31s0.42-0.66,0.42-1.37v-2.41
		c0-0.71-0.14-1.16-0.42-1.37c-0.28-0.21-0.6-0.31-0.97-0.31c-0.39,0-0.72,0.1-0.99,0.31c-0.27,0.21-0.4,0.67-0.4,1.37V28.35z
		 M25.65,40.38c0,0.71,0.13,1.17,0.4,1.38c0.27,0.21,0.6,0.31,0.99,0.31c0.37,0,0.69-0.1,0.97-0.31c0.28-0.21,0.42-0.67,0.42-1.38
		v-4.19c0-0.71-0.14-1.17-0.42-1.38s-0.6-0.31-0.97-0.31c-0.39,0-0.72,0.1-0.99,0.31s-0.4,0.67-0.4,1.38V40.38z"/>
	<path style="clip-path:url(#SVGID_00000160907513524354233490000015351480016327767464_);fill:#E3121C;" d="M36,26.38
		c0-2.02,0.61-3.63,1.85-4.81c1.23-1.18,3.03-1.77,5.4-1.77c2.36,0,4.16,0.59,5.4,1.77c1.23,1.18,1.85,2.79,1.85,4.81v13.57
		c0,2.02-0.62,3.63-1.85,4.81c-1.23,1.18-3.03,1.77-5.4,1.77c-2.37,0-4.16-0.59-5.4-1.77C36.62,43.58,36,41.97,36,39.95V26.38z
		 M41.86,40.38c0,0.71,0.13,1.17,0.4,1.37c0.27,0.21,0.6,0.31,0.99,0.31c0.37,0,0.69-0.1,0.97-0.31c0.28-0.21,0.42-0.66,0.42-1.37
		V25.94c0-0.71-0.14-1.17-0.42-1.38c-0.28-0.21-0.6-0.31-0.97-0.31c-0.39,0-0.72,0.1-0.99,0.31c-0.27,0.21-0.4,0.67-0.4,1.38V40.38z
		"/>
	<polygon style="clip-path:url(#SVGID_00000160907513524354233490000015351480016327767464_);fill:#E3121C;" points="56.64,43.06 
		61.18,43.06 61.18,27.09 63.83,27.09 63.83,43.06 68.37,43.06 68.37,23.27 56.64,23.27 	"/>
	<path style="clip-path:url(#SVGID_00000160907513524354233490000015351480016327767464_);fill:#E3121C;" d="M80.32,24.35
		c-0.52-0.47-1.14-0.82-1.86-1.06c-0.72-0.24-1.5-0.36-2.34-0.36c-0.84,0-1.62,0.12-2.34,0.36c-0.72,0.24-1.33,0.59-1.86,1.06
		s-0.93,1.06-1.22,1.79c-0.29,0.72-0.44,1.56-0.44,2.52v9c0,1.78,0.52,3.18,1.57,4.2c1.05,1.02,2.48,1.53,4.29,1.53
		c1.84,0,3.27-0.51,4.31-1.53c1.04-1.02,1.56-2.42,1.56-4.2v-9c0-0.95-0.15-1.79-0.44-2.52C81.25,25.42,80.84,24.82,80.32,24.35
		 M77.44,38.05c0,0.13-0.01,0.3-0.03,0.51c-0.02,0.21-0.07,0.41-0.15,0.61c-0.08,0.19-0.21,0.36-0.39,0.5
		c-0.18,0.14-0.43,0.21-0.76,0.21c-0.33,0-0.59-0.07-0.77-0.21c-0.18-0.14-0.32-0.3-0.4-0.5c-0.08-0.19-0.13-0.39-0.14-0.61
		c-0.01-0.21-0.01-0.38-0.01-0.51v-9.77c0-0.17,0-0.35,0.01-0.56c0.01-0.21,0.06-0.41,0.14-0.59c0.08-0.18,0.22-0.34,0.4-0.47
		c0.18-0.13,0.44-0.19,0.77-0.19c0.33,0,0.58,0.07,0.76,0.19c0.17,0.13,0.3,0.28,0.39,0.47c0.08,0.18,0.13,0.38,0.15,0.59
		c0.02,0.21,0.03,0.4,0.03,0.56V38.05z"/>
	<path style="clip-path:url(#SVGID_00000160907513524354233490000015351480016327767464_);fill:#E3121C;" d="M89.26,31.09h-0.85
		v-3.99h6.08v-3.83H83.86v19.79h6.47c1.01,0,1.85-0.17,2.53-0.49c0.68-0.33,1.22-0.77,1.62-1.32c0.4-0.55,0.69-1.2,0.85-1.94
		c0.17-0.74,0.25-1.53,0.25-2.35c0-1.85-0.55-3.29-1.65-4.32C92.84,31.6,91.28,31.09,89.26,31.09 M91,38.26
		c-0.04,0.34-0.11,0.62-0.22,0.83s-0.28,0.37-0.5,0.47s-0.52,0.15-0.91,0.15h-0.96v-5.4h1.05c0.35,0,0.63,0.08,0.84,0.23
		c0.21,0.16,0.37,0.36,0.48,0.61c0.11,0.25,0.18,0.53,0.22,0.85c0.04,0.32,0.05,0.66,0.05,1C91.05,37.5,91.03,37.92,91,38.26"/>
	<polygon style="clip-path:url(#SVGID_00000160907513524354233490000015351480016327767464_);fill:#E3121C;" points="101.97,34.83 
		106.87,34.83 106.87,31 101.97,31 101.97,27.09 107.56,27.09 107.56,23.27 97.43,23.27 97.43,43.06 107.78,43.06 107.78,39.24 
		101.97,39.24 	"/>
	<path style="clip-path:url(#SVGID_00000160907513524354233490000015351480016327767464_);fill:#E3121C;" d="M122.76,23.27h-10.94
		c-0.04,1.32-0.06,2.74-0.08,4.24c-0.02,1.51-0.07,2.99-0.15,4.45c-0.08,1.46-0.22,2.83-0.41,4.1c-0.19,1.28-0.47,2.34-0.84,3.18
		h-1.13v7.46h3.83v-3.63h7.17v3.63h3.81v-7.46h-1.27V23.27z M118.22,39.24h-3.44c0.22-0.66,0.4-1.49,0.54-2.48
		c0.14-0.99,0.25-2.06,0.34-3.19s0.17-2.31,0.22-3.51c0.06-1.2,0.1-2.34,0.14-3.43h2.2V39.24z"/>
	<path style="clip-path:url(#SVGID_00000160907513524354233490000015351480016327767464_);fill:#E3121C;" d="M128.77,23.27
		l-3.66,19.79h4.57l0.47-3.52h3.19l0.41,3.52h4.79l-3.72-19.79H128.77z M130.62,36.01l1.16-9.66h0.06l1.07,9.66H130.62z"/>
	<polygon style="clip-path:url(#SVGID_00000160907513524354233490000015351480016327767464_);fill:#E3121C;" points="140.48,23.27 
		140.48,31 141.41,37.34 143.64,37.34 144.58,31 144.58,23.27 	"/>
	
		<rect x="140.48" y="38.49" style="clip-path:url(#SVGID_00000160907513524354233490000015351480016327767464_);fill:#E3121C;" width="4.1" height="4.57"/>
</g>
</svg>
